STARTFONT 2.3
FONT -FontForge-Tangerine-Book-R-Normal--20-200-72-72-P-74-ISO10646-1
SIZE 20 72 72  4
FONTBOUNDINGBOX 34 22 -7 -6
COMMENT "Generated by fontforge, http://fontforge.sourceforge.net"
COMMENT "Copyright (c) 2010 by Toshi Omagari. All rights reserved."
STARTPROPERTIES 40
FOUNDRY "FontForge"
FAMILY_NAME "Tangerine"
WEIGHT_NAME "Book"
SLANT "R"
SETWIDTH_NAME "Normal"
ADD_STYLE_NAME ""
PIXEL_SIZE 20
POINT_SIZE 200
RESOLUTION_X 72
RESOLUTION_Y 72
SPACING "P"
AVERAGE_WIDTH 74
CHARSET_REGISTRY "ISO10646"
CHARSET_ENCODING "1"
FONTNAME_REGISTRY ""
CHARSET_COLLECTIONS "ISO10646-1"
BITS_PER_PIXEL 4
FONT_NAME "Tangerine-Regular"
FACE_NAME "Tangerine Regular"
COPYRIGHT "Copyright (c) 2010 by Toshi Omagari. All rights reserved."
FONT_VERSION "1.3"
FONT_ASCENT 15
FONT_DESCENT 5
UNDERLINE_POSITION -2
UNDERLINE_THICKNESS 1
X_HEIGHT 4
CAP_HEIGHT 12
RAW_ASCENT 750
RAW_DESCENT 250
NORM_SPACE 3
RELATIVE_WEIGHT 40
RELATIVE_SETWIDTH 50
SUPERSCRIPT_X 0
SUPERSCRIPT_Y 9
SUPERSCRIPT_SIZE 13
SUBSCRIPT_X 0
SUBSCRIPT_Y 2
SUBSCRIPT_SIZE 13
AVG_LOWERCASE_WIDTH 49
AVG_UPPERCASE_WIDTH 141
ENDPROPERTIES
CHARS 233
STARTCHAR space
ENCODING 32
SWIDTH 150 0
DWIDTH 3 0
BBX 1 1 0 0
BITMAP
00
ENDCHAR
STARTCHAR exclam
ENCODING 33
SWIDTH 189 0
DWIDTH 4 0
BBX 6 11 1 0
BITMAP
000001
0000B2
000490
000920
000900
005400
007000
015000
050000
000000
920000
ENDCHAR
STARTCHAR quotedbl
ENCODING 34
SWIDTH 214 0
DWIDTH 4 0
BBX 5 3 1 5
BITMAP
0B2B10
636200
303000
ENDCHAR
STARTCHAR numbersign
ENCODING 35
SWIDTH 289 0
DWIDTH 6 0
BBX 6 6 0 0
BITMAP
003434
06EFFE
035330
5CFB70
070200
233000
ENDCHAR
STARTCHAR dollar
ENCODING 36
SWIDTH 269 0
DWIDTH 5 0
BBX 6 10 0 -2
BITMAP
000020
000150
0033A1
00B730
009700
003920
614630
886600
050000
020000
ENDCHAR
STARTCHAR percent
ENCODING 37
SWIDTH 388 0
DWIDTH 8 0
BBX 8 10 0 -2
BITMAP
00000021
00000170
02660710
41084300
837455A2
4B464144
00618051
03408830
16000000
21000000
ENDCHAR
STARTCHAR ampersand
ENCODING 38
SWIDTH 507 0
DWIDTH 10 0
BBX 10 10 0 0
BITMAP
0002CA0000
00081A0000
0007060000
0008320000
001B300000
057A100499
3805502300
8400C23000
67004D2001
0AA743BA73
ENDCHAR
STARTCHAR quotesingle
ENCODING 39
SWIDTH 120 0
DWIDTH 2 0
BBX 3 3 1 5
BITMAP
0A20
5400
4000
ENDCHAR
STARTCHAR parenleft
ENCODING 40
SWIDTH 250 0
DWIDTH 5 0
BBX 6 15 1 -2
BITMAP
000013
000170
000810
004700
00A100
029000
075000
0B1000
0C0000
0B0000
190000
180000
080000
070000
060000
ENDCHAR
STARTCHAR parenright
ENCODING 41
SWIDTH 276 0
DWIDTH 6 0
BBX 6 15 0 -2
BITMAP
000040
000060
000062
000053
000064
000083
0000A2
0000C0
0001B0
000660
000A10
002800
008100
045000
250000
ENDCHAR
STARTCHAR asterisk
ENCODING 42
SWIDTH 188 0
DWIDTH 4 0
BBX 3 3 1 5
BITMAP
2700
6510
3120
ENDCHAR
STARTCHAR plus
ENCODING 43
SWIDTH 301 0
DWIDTH 6 0
BBX 5 5 1 0
BITMAP
006100
008000
CFFF50
053000
070000
ENDCHAR
STARTCHAR comma
ENCODING 44
SWIDTH 112 0
DWIDTH 2 0
BBX 2 2 0 -1
BITMAP
19
32
ENDCHAR
STARTCHAR hyphen
ENCODING 45
SWIDTH 245 0
DWIDTH 5 0
BBX 1 1 4 3
BITMAP
00
ENDCHAR
STARTCHAR period
ENCODING 46
SWIDTH 112 0
DWIDTH 2 0
BBX 2 2 0 0
BITMAP
04
57
ENDCHAR
STARTCHAR slash
ENCODING 47
SWIDTH 210 0
DWIDTH 4 0
BBX 9 14 -1 -1
BITMAP
0000000040
0000000610
0000002500
0000007000
0000043000
0000070000
0000510000
0001600000
0006000000
0025000000
0070000000
0430000000
0700000000
4200000000
ENDCHAR
STARTCHAR zero
ENCODING 48
SWIDTH 349 0
DWIDTH 7 0
BBX 6 6 1 0
BITMAP
0135A2
130029
600009
A00035
C10170
5C9600
ENDCHAR
STARTCHAR one
ENCODING 49
SWIDTH 189 0
DWIDTH 4 0
BBX 5 6 0 0
BITMAP
08DF60
005A00
00B200
039000
0A3000
1C0000
ENDCHAR
STARTCHAR two
ENCODING 50
SWIDTH 277 0
DWIDTH 6 0
BBX 6 6 0 0
BITMAP
0058C2
031065
000081
000530
035100
59A960
ENDCHAR
STARTCHAR three
ENCODING 51
SWIDTH 253 0
DWIDTH 5 0
BBX 8 9 -2 -3
BITMAP
000246A0
000000C1
00027C90
00021300
00000540
00000580
00000950
16029900
0AEC5000
ENDCHAR
STARTCHAR four
ENCODING 52
SWIDTH 363 0
DWIDTH 7 0
BBX 10 10 0 0
BITMAP
0000000061
0000002B30
0000036700
000042A100
0005137000
0051091000
0652291400
157CFEB100
0000B10000
0004800000
ENDCHAR
STARTCHAR five
ENCODING 53
SWIDTH 250 0
DWIDTH 5 0
BBX 8 10 -2 -3
BITMAP
00000003
00007CB7
00004000
00043000
0006E400
00005E00
00000A20
00000A00
43029300
1DEA2000
ENDCHAR
STARTCHAR six
ENCODING 54
SWIDTH 296 0
DWIDTH 6 0
BBX 8 10 1 0
BITMAP
00007DE4
00195116
00910000
07400000
1A582000
7703A000
B001C000
B0037000
D0070000
8B710000
ENDCHAR
STARTCHAR seven
ENCODING 55
SWIDTH 326 0
DWIDTH 7 0
BBX 9 9 -1 -3
BITMAP
000BFEDB30
0044001700
0030005100
0000042000
0000440000
0004500000
0048000000
03B0000000
1A20000000
ENDCHAR
STARTCHAR eight
ENCODING 56
SWIDTH 305 0
DWIDTH 6 0
BBX 7 10 0 0
BITMAP
00004730
000711C0
000B0090
000C2260
0006D500
01736A00
09100D10
2A000A10
2D001600
07B75000
ENDCHAR
STARTCHAR nine
ENCODING 57
SWIDTH 304 0
DWIDTH 6 0
BBX 7 9 -1 -3
BITMAP
00013860
003100D0
008000C0
00A004B0
01E22C60
009EBA10
00003500
41267000
6EC50000
ENDCHAR
STARTCHAR colon
ENCODING 58
SWIDTH 156 0
DWIDTH 3 0
BBX 3 5 0 0
BITMAP
0380
0000
0000
0000
6500
ENDCHAR
STARTCHAR semicolon
ENCODING 59
SWIDTH 156 0
DWIDTH 3 0
BBX 3 7 0 -2
BITMAP
0380
0000
0000
0200
3900
3300
3000
ENDCHAR
STARTCHAR less
ENCODING 60
SWIDTH 301 0
DWIDTH 6 0
BBX 5 4 1 1
BITMAP
000140
168610
870000
015300
ENDCHAR
STARTCHAR equal
ENCODING 61
SWIDTH 301 0
DWIDTH 6 0
BBX 6 3 0 1
BITMAP
08FFF9
000000
2EFFF2
ENDCHAR
STARTCHAR greater
ENCODING 62
SWIDTH 301 0
DWIDTH 6 0
BBX 5 5 1 1
BITMAP
120000
1A8100
006D30
001300
200000
ENDCHAR
STARTCHAR question
ENCODING 63
SWIDTH 285 0
DWIDTH 6 0
BBX 7 10 1 0
BITMAP
00179D30
005004A0
00000290
00000720
00017400
00350000
06300000
0A300000
00000000
92000000
ENDCHAR
STARTCHAR at
ENCODING 64
SWIDTH 492 0
DWIDTH 10 0
BBX 8 11 1 -3
BITMAP
003BEE80
059302B7
2900200B
71020A17
80507804
80A4B302
90B88520
A0000100
58000031
06B76520
00021000
ENDCHAR
STARTCHAR A
ENCODING 65
SWIDTH 996 0
DWIDTH 20 0
BBX 19 13 1 0
BITMAP
00000000005789AA8400
00000000041000004AD0
00000000310000005840
00000000300000062800
00000000000000616400
00000000000007109000
00000000000062019000
000000000AFFFEEE6000
20000000001600065000
60000000025000083000
90000000540000093000
C6000157200000087040
3CDBA83000000003E900
ENDCHAR
STARTCHAR B
ENCODING 66
SWIDTH 638 0
DWIDTH 13 0
BBX 13 14 0 0
BITMAP
00000000013100
000001469CB600
00002301901B90
000030082001E0
0001001A0000C0
00000056000370
000000A1297400
000000A002B800
00000460000D30
00000900000770
00004400000580
2C753000000840
02A81000003900
00038755555000
ENDCHAR
STARTCHAR C
ENCODING 67
SWIDTH 557 0
DWIDTH 11 0
BBX 12 13 1 0
BITMAP
0000145569B3
000440000037
006200000022
046000000000
0B0000000000
3A0000000000
770000000000
960000000000
970000000000
6B0000000300
1E2000000600
05C200008300
003975587000
ENDCHAR
STARTCHAR D
ENCODING 68
SWIDTH 799 0
DWIDTH 16 0
BBX 16 14 0 0
BITMAP
0000000000000200
00000579AB755000
0000610001BE4000
0004000002A3D600
000400000A201D30
000000002A0003D0
00000000750000A6
00000000B000003A
000000039000000C
000000092000000B
0000001800000009
0022108100000053
1667AC9200000250
49444149A9876300
ENDCHAR
STARTCHAR E
ENCODING 69
SWIDTH 494 0
DWIDTH 10 0
BBX 10 13 1 0
BITMAP
00001557A5
000190001A
0005600004
0004800000
0000871000
004DFF4000
07C5100000
3C00000000
9500000000
B300000010
A400000150
4B00000910
0496457300
ENDCHAR
STARTCHAR F
ENCODING 70
SWIDTH 626 0
DWIDTH 13 0
BBX 16 13 1 0
BITMAP
000000478ABDEC61
0000041000053131
0000300000460000
0000000000A10000
0000000001A00000
0000000006600000
000003EFFFED3000
000000000B000000
1100000037000000
7000000090000000
A000000530000000
B400005300000000
2BB9761000000000
ENDCHAR
STARTCHAR G
ENCODING 71
SWIDTH 571 0
DWIDTH 11 0
BBX 15 17 -1 -4
BITMAP
00000000016CEE50
000000003A6204C0
0000000470000070
0000002800000220
000000A000000000
0000047000000000
0000093000000000
00000D1000000000
00000E0000061000
00000D20002C0000
0000078001870000
0600004531A10000
6400000002900000
A200000008100000
9400000053000000
4C10000530000000
04A7555100000000
ENDCHAR
STARTCHAR H
ENCODING 72
SWIDTH 865 0
DWIDTH 17 0
BBX 22 14 1 0
BITMAP
0000000000000000000498
0000026688950000006417
0000240002810000050000
000040000B100000510000
000010004A000002500000
0000000095000008000000
00000001E1000027000000
0016BEEFB0000092000000
04B62006A89974B0000000
3700000C100049E5000000
8000005800000850000000
900002B000000C10000000
C3025A1000000E04000000
5DEC700000000BA2000000
ENDCHAR
STARTCHAR I
ENCODING 73
SWIDTH 554 0
DWIDTH 11 0
BBX 14 13 1 0
BITMAP
000000000049C6
00000000197520
00000001811700
00000007007300
0000004200B000
00000050028000
00000040063000
00000030090000
03000010350000
62000000920000
C0000019100000
B8102692000000
2BEDB500000000
ENDCHAR
STARTCHAR J
ENCODING 74
SWIDTH 634 0
DWIDTH 13 0
BBX 17 17 0 -4
BITMAP
00000000000006AC30
000000000003956100
000000000046053000
0000000001600A0000
000000000500280000
000000000400740000
000000002200A00000
000000001301900000
000000000306400000
00024200002B200000
005200000046000000
0500000000A0000000
610000000730000000
900000004600000000
C00000057000000000
A82025A50000000000
1BEEB7100000000000
ENDCHAR
STARTCHAR K
ENCODING 75
SWIDTH 936 0
DWIDTH 19 0
BBX 19 13 1 0
BITMAP
000000479ABA30018BB0
00000530002700461060
00004100009004300000
00004000028042000000
00004000074330000000
000040000A3600000000
000010000C3900000000
000000002A0C00000000
15000000640930000000
80000000900490000000
B00000052000C2000000
C300005300004C100200
3B986510000005CA7000
ENDCHAR
STARTCHAR L
ENCODING 76
SWIDTH 657 0
DWIDTH 13 0
BBX 15 13 0 0
BITMAP
000000000008DE20
0000000001831770
0000000007100150
0000000035000100
0000000090000000
0000000190000000
0000000550000000
0000000A10000000
0000001A00000000
0000006400000000
05A9628000002000
45027FB631144000
2A65525BEFD50000
ENDCHAR
STARTCHAR M
ENCODING 77
SWIDTH 1219 0
DWIDTH 24 0
BBX 25 13 1 0
BITMAP
000000003789ABA62000000560
0000000240000026C800008A00
0000000400000001C100079100
00000012000000077000657000
000000000000004910081A0000
00000000000002590071370000
03000000000016360520820000
42000000000070834400B00000
90000000000710B17001B00000
C0000000007101B70002A00000
C2000000271003C40003A00000
6C200027600006A00002D03100
06DCA961000007200000AC3000
ENDCHAR
STARTCHAR N
ENCODING 78
SWIDTH 990 0
DWIDTH 20 0
BBX 25 13 1 0
BITMAP
00000058AC721000000002BD30
00000410006E30000000291160
000000000007C1000000800000
0000000000073C000005200000
00000000000607700006000000
00000000003300C20041000000
00000000006000490050000000
220000000150000C2140000000
70000000050000067410000000
9000000024000001C400000000
C100000260000000B700000000
7B300176000000006700000000
06DECA30000000001500000000
ENDCHAR
STARTCHAR O
ENCODING 79
SWIDTH 606 0
DWIDTH 12 0
BBX 12 13 1 0
BITMAP
000017CEEA20
000494103AD1
004600000098
02600000002D
08000000000D
18000000000B
55000000000A
840000000028
950000000072
790000000270
2E3000002800
07E720278000
005CFEA40000
ENDCHAR
STARTCHAR P
ENCODING 80
SWIDTH 783 0
DWIDTH 16 0
BBX 17 14 1 0
BITMAP
000000000000230000
00000000367ACB5000
00000004200902C700
000000310065001D20
0000012000A0000950
0000030002A0000760
000000000650000930
000000003A10002A00
010000002B20048100
410000006245520000
600000007000000000
800000051000000000
940000420000000000
19A975000000000000
ENDCHAR
STARTCHAR Q
ENCODING 81
SWIDTH 563 0
DWIDTH 11 0
BBX 14 16 1 -3
BITMAP
00002345850000
000310000A5000
0041000002D000
0150000000D200
0710000000B300
0900000000C100
0A00000001B000
0B000000064000
09500000170000
01A94000600000
00000013000000
23012210000000
37CB4000000000
0004BC50000000
000003BD831037
000000039DFE91
ENDCHAR
STARTCHAR R
ENCODING 82
SWIDTH 854 0
DWIDTH 17 0
BBX 17 14 1 0
BITMAP
000000000001410000
00000000457CCA1000
00000024009106B000
00000220038000B200
000001000930008400
000000000C00008100
000000004900023000
000000009464310000
00000000B0A3000000
220000046066000000
50000009002B000000
70000053000B200000
A00005400004B10110
4B98710000006C9400
ENDCHAR
STARTCHAR S
ENCODING 83
SWIDTH 480 0
DWIDTH 10 0
BBX 10 13 1 0
BITMAP
0000039BB1
0000160057
0000530023
0000560000
00001C0000
0000078000
000000B400
0000002B00
1200000B10
9000000820
C000000900
B500003500
1998762000
ENDCHAR
STARTCHAR T
ENCODING 84
SWIDTH 577 0
DWIDTH 12 0
BBX 16 13 1 0
BITMAP
000005BEFEDB8410
000076101247AAB1
0005100000031000
0004000000330000
0031000000800000
0020000005500000
000000000A100000
000000002A000000
0000000073000000
6100000180000000
B000000710000000
C400016200000000
3BB9850000000000
ENDCHAR
STARTCHAR U
ENCODING 85
SWIDTH 752 0
DWIDTH 15 0
BBX 16 13 1 0
BITMAP
00178ABB40000049
02500006200000B1
0500004200000480
3100044000000B20
4000070000004A00
400062000000C400
200090000005D000
000370000018A000
0007400000776000
0009300004492000
000A4000360C0000
0008B127700C1320
0002CEB40008D400
ENDCHAR
STARTCHAR V
ENCODING 86
SWIDTH 661 0
DWIDTH 13 0
BBX 14 13 1 0
BITMAP
0038AB30000AD4
025001B100326D
0500004800000C
2200000B000009
3000000A000007
10000009100033
00000009100040
00000009000310
0000000A002100
00000009032000
00000028410000
0000006A100000
00000081000000
ENDCHAR
STARTCHAR W
ENCODING 87
SWIDTH 822 0
DWIDTH 16 0
BBX 18 13 1 0
BITMAP
0069CC2000000002C4
052007B00004400239
220000C10037000019
4000007201C1000036
3000005306B0000071
0000005242B0000170
0000006150B0000610
0000005510A1004300
000000650093034000
000000900084250000
000004600075600000
00000810007A100000
000007000073000000
ENDCHAR
STARTCHAR X
ENCODING 88
SWIDTH 813 0
DWIDTH 16 0
BBX 16 13 1 0
BITMAP
0000008D000018DC
0000052A4003820A
0000030560360005
0000000380700000
00000001A5000000
00000000B4000000
00000000B1000000
0000000395000000
000000052B000000
120000500C200000
7000042005B00011
D101730000BB2160
9EC810000019ED20
ENDCHAR
STARTCHAR Y
ENCODING 89
SWIDTH 662 0
DWIDTH 13 0
BBX 18 16 0 -3
BITMAP
00000016C400000074
0000005075000001C0
000000008300000760
00000000B000001C00
000000019000009600
00000006500003D000
0000000A10000C5000
0000000A00007A0000
0054201A0006930000
0710002D1286600000
7200000BEB25100000
B00000000033000000
C10000000240000000
960000004500000000
2D7201495000000000
02BFEB710000000000
ENDCHAR
STARTCHAR Z
ENCODING 90
SWIDTH 625 0
DWIDTH 13 0
BBX 14 13 1 0
BITMAP
000002CFDB7231
00001820149E70
00005000000100
00003000001000
00000000010000
00000000000000
00000010000000
00000100000000
00001000000000
00000000001200
00000000005000
08DA6310273000
6116BEFDA20000
ENDCHAR
STARTCHAR bracketleft
ENCODING 91
SWIDTH 318 0
DWIDTH 6 0
BBX 8 14 1 -2
BITMAP
0001C452
00058000
00084000
000B0000
001B0000
00470000
00830000
00B00000
01B00000
05700000
09400000
0C100000
1D000000
5C540000
ENDCHAR
STARTCHAR backslash
ENCODING 92
SWIDTH 212 0
DWIDTH 4 0
BBX 4 14 0 -1
BITMAP
3000
4200
1500
0600
0600
0600
0510
0240
0060
0060
0060
0051
0025
0005
ENDCHAR
STARTCHAR bracketright
ENCODING 93
SWIDTH 339 0
DWIDTH 7 0
BBX 8 14 0 -2
BITMAP
000045D3
000000D0
000003A0
00000660
00000A20
00000C00
00002A00
00006600
0000A200
0000C000
0002A000
00066000
000A3000
355D0000
ENDCHAR
STARTCHAR asciicircum
ENCODING 94
SWIDTH 272 0
DWIDTH 5 0
BBX 4 4 1 4
BITMAP
00B1
0696
261A
6009
ENDCHAR
STARTCHAR underscore
ENCODING 95
SWIDTH 356 0
DWIDTH 7 0
BBX 8 2 -1 -1
BITMAP
00011110
2CB98772
ENDCHAR
STARTCHAR grave
ENCODING 96
SWIDTH 155 0
DWIDTH 3 0
BBX 3 3 0 6
BITMAP
1100
5C00
0440
ENDCHAR
STARTCHAR a
ENCODING 97
SWIDTH 294 0
DWIDTH 6 0
BBX 6 5 0 0
BITMAP
008EE7
085181
290380
584951
3E6581
ENDCHAR
STARTCHAR b
ENCODING 98
SWIDTH 247 0
DWIDTH 5 0
BBX 11 15 0 0
BITMAP
000000069B40
000000610030
000005000000
000031000000
000040000000
000500000000
000600000000
006200000000
008000000000
036000000000
085890000000
0C20A0000000
1A0170000000
480600000000
3C6100000000
ENDCHAR
STARTCHAR c
ENCODING 99
SWIDTH 203 0
DWIDTH 4 0
BBX 5 5 0 0
BITMAP
002610
040000
260000
560300
3D7000
ENDCHAR
STARTCHAR d
ENCODING 100
SWIDTH 285 0
DWIDTH 6 0
BBX 13 15 0 0
BITMAP
00000000006A90
00000000052020
00000000410000
00000002200000
00000004000000
00000041000000
00000060000000
00000510000000
00000700000000
00002600000000
0043B100000000
0700B000000000
27059000000000
56286100000000
3C55A200000000
ENDCHAR
STARTCHAR e
ENCODING 101
SWIDTH 206 0
DWIDTH 4 0
BBX 5 5 0 0
BITMAP
014C10
053800
291000
560100
3C7200
ENDCHAR
STARTCHAR f
ENCODING 102
SWIDTH 156 0
DWIDTH 3 0
BBX 17 20 -6 -5
BITMAP
000000000000059C30
000000000000510150
000000000005100000
000000000025000000
000000000080000000
000000000360000000
000000000910000000
000000001900000000
000000006500000000
00000000A100000000
0000003EFDA0000000
000000038000000000
000000083000000000
0000000A0000000000
000000460000000000
000000900000000000
000003500000000000
000007000000000000
300051000000000000
875400000000000000
ENDCHAR
STARTCHAR g
ENCODING 103
SWIDTH 210 0
DWIDTH 4 0
BBX 8 10 -3 -5
BITMAP
000001D4
00014090
00046390
0002ED20
00000800
00000900
07200550
39000190
1E611860
04CED800
ENDCHAR
STARTCHAR h
ENCODING 104
SWIDTH 292 0
DWIDTH 6 0
BBX 11 15 0 0
BITMAP
0000000179B0
000000240040
000001300000
000005000000
000051000000
000150000000
000610000000
000700000000
006300000000
009000000000
027297000000
0751A2000000
0B21A0000000
1B0371000000
6403A2000000
ENDCHAR
STARTCHAR i
ENCODING 105
SWIDTH 149 0
DWIDTH 3 0
BBX 5 8 0 0
BITMAP
000410
003300
000000
037000
082000
090000
371000
3B2000
ENDCHAR
STARTCHAR j
ENCODING 106
SWIDTH 136 0
DWIDTH 3 0
BBX 10 13 -6 -5
BITMAP
0000000005
0000000051
0000000000
0000000450
0000001920
0000000900
0000001700
0000006200
0000007000
0000042000
0000150000
4001400000
8753000000
ENDCHAR
STARTCHAR k
ENCODING 107
SWIDTH 259 0
DWIDTH 5 0
BBX 11 15 0 0
BITMAP
0000000279A0
000000330050
000003200000
000013000000
000050000000
000420000000
000700000000
003400000000
008000000000
017000000000
0655B0000000
0A2180000000
0B9400000000
387300000000
641A41000000
ENDCHAR
STARTCHAR l
ENCODING 108
SWIDTH 134 0
DWIDTH 3 0
BBX 10 15 0 0
BITMAP
00000008D6
0000007203
0000061000
0000330000
0000500000
0005100000
0006000000
0052000000
0080000000
0360000000
0820000000
0A00000000
2900000000
5700000000
4710000000
ENDCHAR
STARTCHAR m
ENCODING 109
SWIDTH 413 0
DWIDTH 8 0
BBX 8 5 0 0
BITMAP
0674B13A
1680A31A
0A21C065
1A0560A0
540910A3
ENDCHAR
STARTCHAR n
ENCODING 110
SWIDTH 291 0
DWIDTH 6 0
BBX 6 5 0 0
BITMAP
157296
076192
0B2190
2A0461
6303A2
ENDCHAR
STARTCHAR o
ENCODING 111
SWIDTH 225 0
DWIDTH 5 0
BBX 5 5 0 0
BITMAP
01BE20
071840
350710
562600
3E9000
ENDCHAR
STARTCHAR p
ENCODING 112
SWIDTH 261 0
DWIDTH 5 0
BBX 6 11 -1 -5
BITMAP
001A00
007639
00210B
00301B
0152A4
07EC40
080000
170000
640000
910000
A50000
ENDCHAR
STARTCHAR q
ENCODING 113
SWIDTH 269 0
DWIDTH 5 0
BBX 6 10 0 -5
BITMAP
004386
071091
360470
742B10
5B4900
006500
00A100
00B000
039000
04B200
ENDCHAR
STARTCHAR r
ENCODING 114
SWIDTH 195 0
DWIDTH 4 0
BBX 5 5 0 0
BITMAP
186B90
05A220
084000
0A0000
370000
ENDCHAR
STARTCHAR s
ENCODING 115
SWIDTH 188 0
DWIDTH 4 0
BBX 4 5 0 0
BITMAP
0556
0931
02B0
30A1
8470
ENDCHAR
STARTCHAR t
ENCODING 116
SWIDTH 171 0
DWIDTH 3 0
BBX 5 8 0 0
BITMAP
000500
004600
00A000
08FC10
085000
0B0000
1A0100
1C5100
ENDCHAR
STARTCHAR u
ENCODING 117
SWIDTH 299 0
DWIDTH 6 0
BBX 6 5 0 0
BITMAP
038037
0A20A1
1903A0
472490
3B31B3
ENDCHAR
STARTCHAR v
ENCODING 118
SWIDTH 271 0
DWIDTH 5 0
BBX 6 5 0 0
BITMAP
187053
044092
0715A0
098C10
1D7000
ENDCHAR
STARTCHAR w
ENCODING 119
SWIDTH 369 0
DWIDTH 7 0
BBX 8 5 0 0
BITMAP
3B1042B0
07454051
06592050
08591130
08169400
ENDCHAR
STARTCHAR x
ENCODING 120
SWIDTH 263 0
DWIDTH 5 0
BBX 7 5 -1 0
BITMAP
00573D50
002A8140
000B0000
02391000
1A32A500
ENDCHAR
STARTCHAR y
ENCODING 121
SWIDTH 280 0
DWIDTH 6 0
BBX 10 10 -4 -5
BITMAP
0000037027
00000910A3
00000903C0
0000371670
00003A3820
0000000900
0100005400
6100007000
7400061000
1975510000
ENDCHAR
STARTCHAR z
ENCODING 122
SWIDTH 238 0
DWIDTH 5 0
BBX 6 5 -1 0
BITMAP
0069A7
001150
001500
015003
19A970
ENDCHAR
STARTCHAR braceleft
ENCODING 123
SWIDTH 291 0
DWIDTH 6 0
BBX 7 15 1 -2
BITMAP
00001430
00028100
00091000
000B0000
000B0000
00280000
00620000
09400000
03B00000
02900000
07400000
0B000000
39000000
38000000
08500000
ENDCHAR
STARTCHAR bar
ENCODING 124
SWIDTH 162 0
DWIDTH 3 0
BBX 2 18 1 -5
BITMAP
61
61
61
61
61
61
61
61
61
61
61
61
61
61
61
61
61
61
ENDCHAR
STARTCHAR braceright
ENCODING 125
SWIDTH 285 0
DWIDTH 6 0
BBX 6 15 0 -2
BITMAP
000251
00001B
00000C
00001B
000066
0000A0
0000B0
0000B5
000261
000A00
000B00
001A00
004700
009200
464000
ENDCHAR
STARTCHAR asciitilde
ENCODING 126
SWIDTH 383 0
DWIDTH 8 0
BBX 7 2 1 3
BITMAP
1CD51510
515DD300
ENDCHAR
STARTCHAR space.dup1
ENCODING 160
SWIDTH 150 0
DWIDTH 3 0
BBX 1 1 0 0
BITMAP
00
ENDCHAR
STARTCHAR exclamdown
ENCODING 161
SWIDTH 189 0
DWIDTH 4 0
BBX 6 11 -2 -6
BITMAP
000047
000000
000240
000600
001600
007100
009000
066000
0D1000
580000
100000
ENDCHAR
STARTCHAR cent
ENCODING 162
SWIDTH 194 0
DWIDTH 4 0
BBX 5 10 0 -2
BITMAP
000110
000500
011E20
039200
538000
992000
6C3100
220000
500000
300000
ENDCHAR
STARTCHAR sterling
ENCODING 163
SWIDTH 344 0
DWIDTH 7 0
BBX 7 6 0 0
BITMAP
00005970
00052030
001A3200
01660000
03810000
879B9610
ENDCHAR
STARTCHAR currency
ENCODING 164
SWIDTH 344 0
DWIDTH 7 0
BBX 7 6 0 0
BITMAP
02400150
00402700
05000700
06001600
06658000
42003200
ENDCHAR
STARTCHAR yen
ENCODING 165
SWIDTH 309 0
DWIDTH 6 0
BBX 7 6 0 0
BITMAP
05601530
00720000
1BCD8000
01A00000
4CFF2000
03800000
ENDCHAR
STARTCHAR brokenbar
ENCODING 166
SWIDTH 162 0
DWIDTH 3 0
BBX 2 18 1 -5
BITMAP
61
61
61
61
61
61
40
00
00
00
00
40
61
61
61
61
61
61
ENDCHAR
STARTCHAR section
ENCODING 167
SWIDTH 395 0
DWIDTH 8 0
BBX 11 16 -1 -5
BITMAP
000000035200
000003954B40
000046300360
000088100310
000198200000
0002A6400000
0000B4800000
0000C0B00000
0000A2B00000
000066930000
000039740000
01000A650000
61000A720000
B00008800000
C40048200000
2AA871000000
ENDCHAR
STARTCHAR dieresis
ENCODING 168
SWIDTH 174 0
DWIDTH 3 0
BBX 3 2 0 6
BITMAP
0110
73A0
ENDCHAR
STARTCHAR copyright
ENCODING 169
SWIDTH 331 0
DWIDTH 7 0
BBX 6 6 1 2
BITMAP
002400
141270
433551
563160
731550
178300
ENDCHAR
STARTCHAR ordfeminine
ENCODING 170
SWIDTH 226 0
DWIDTH 5 0
BBX 3 2 1 4
BITMAP
3170
5050
ENDCHAR
STARTCHAR guillemotleft
ENCODING 171
SWIDTH 289 0
DWIDTH 6 0
BBX 6 5 0 0
BITMAP
00263B
035790
55AB00
2C5F40
0295F0
ENDCHAR
STARTCHAR logicalnot
ENCODING 172
SWIDTH 265 0
DWIDTH 5 0
BBX 5 4 0 2
BITMAP
001110
9EDDB0
000380
000820
ENDCHAR
STARTCHAR registered
ENCODING 174
SWIDTH 331 0
DWIDTH 7 0
BBX 6 5 1 2
BITMAP
002230
225651
556160
843480
3CA810
ENDCHAR
STARTCHAR degree
ENCODING 176
SWIDTH 104 0
DWIDTH 2 0
BBX 3 3 1 5
BITMAP
1840
5360
3E20
ENDCHAR
STARTCHAR plusminus
ENCODING 177
SWIDTH 301 0
DWIDTH 6 0
BBX 6 5 0 0
BITMAP
000610
000800
0CFFF5
005300
46B630
ENDCHAR
STARTCHAR twosuperior
ENCODING 178
SWIDTH 215 0
DWIDTH 4 0
BBX 3 3 1 3
BITMAP
1580
0240
5830
ENDCHAR
STARTCHAR threesuperior
ENCODING 179
SWIDTH 190 0
DWIDTH 4 0
BBX 3 3 1 3
BITMAP
1620
1720
5510
ENDCHAR
STARTCHAR acute
ENCODING 180
SWIDTH 157 0
DWIDTH 3 0
BBX 3 2 0 6
BITMAP
0780
1600
ENDCHAR
STARTCHAR mu
ENCODING 181
SWIDTH 324 0
DWIDTH 6 0
BBX 8 8 -1 -3
BITMAP
00072091
00280480
00921A30
01D27910
06AA1871
0A000000
1A000000
46000000
ENDCHAR
STARTCHAR paragraph
ENCODING 182
SWIDTH 392 0
DWIDTH 8 0
BBX 11 11 -2 -5
BITMAP
000000453A20
00001BF67500
0000AFF2B100
0001FFD1B000
0001FF966000
00007F4B1000
0000072A0000
000007740000
610044900000
B00179100000
696860000000
ENDCHAR
STARTCHAR periodcentered
ENCODING 183
SWIDTH 112 0
DWIDTH 2 0
BBX 2 2 0 2
BITMAP
29
55
ENDCHAR
STARTCHAR cedilla
ENCODING 184
SWIDTH 115 0
DWIDTH 2 0
BBX 2 2 0 -2
BITMAP
06
24
ENDCHAR
STARTCHAR onesuperior
ENCODING 185
SWIDTH 174 0
DWIDTH 3 0
BBX 2 4 1 3
BITMAP
84
2A
72
80
ENDCHAR
STARTCHAR ordmasculine
ENCODING 186
SWIDTH 178 0
DWIDTH 4 0
BBX 2 3 1 3
BITMAP
37
51
10
ENDCHAR
STARTCHAR guillemotright
ENCODING 187
SWIDTH 276 0
DWIDTH 6 0
BBX 6 5 -1 0
BITMAP
02B2A0
007887
001919
025250
242400
ENDCHAR
STARTCHAR onequarter
ENCODING 188
SWIDTH 435 0
DWIDTH 9 0
BBX 8 8 1 -1
BITMAP
00000150
04900700
06307101
08061481
45523560
3442DE30
25000700
60000000
ENDCHAR
STARTCHAR onehalf
ENCODING 189
SWIDTH 434 0
DWIDTH 9 0
BBX 8 8 1 -1
BITMAP
00000150
04900700
05307120
08062592
45521061
34400520
25039740
60000000
ENDCHAR
STARTCHAR threequarters
ENCODING 190
SWIDTH 476 0
DWIDTH 10 0
BBX 9 8 1 -1
BITMAP
0000003400
0490026000
0370170110
0290702900
4256136200
125246A100
0340025000
1500000000
ENDCHAR
STARTCHAR questiondown
ENCODING 191
SWIDTH 285 0
DWIDTH 6 0
BBX 7 11 -1 -6
BITMAP
00000560
00000000
00008500
00007200
00162000
06500000
63000000
B0000000
D0024000
7D950000
01000000
ENDCHAR
STARTCHAR Agrave
ENCODING 192
SWIDTH 996 0
DWIDTH 20 0
BBX 19 16 1 0
BITMAP
00000000000000003200
00000000000000002850
00000000000000000000
00000000005789AA8400
00000000041000004AD0
00000000310000005840
00000000300000062800
00000000000000616400
00000000000007109000
00000000000062019000
000000000AFFFEEE6000
20000000001600065000
60000000025000083000
90000000540000093000
C6000157200000087040
3CDBA83000000003E900
ENDCHAR
STARTCHAR Aacute
ENCODING 193
SWIDTH 996 0
DWIDTH 20 0
BBX 20 16 1 0
BITMAP
00000000000000000011
00000000000000000483
00000000000000000000
00000000005789AA8400
00000000041000004AD0
00000000310000005840
00000000300000062800
00000000000000616400
00000000000007109000
00000000000062019000
000000000AFFFEEE6000
20000000001600065000
60000000025000083000
90000000540000093000
C6000157200000087040
3CDBA83000000003E900
ENDCHAR
STARTCHAR Acircumflex
ENCODING 194
SWIDTH 996 0
DWIDTH 20 0
BBX 21 16 1 0
BITMAP
0000000000000000005000
0000000000000000144810
0000000000000000000000
00000000005789AA840000
00000000041000004AD000
0000000031000000584000
0000000030000006280000
0000000000000061640000
0000000000000710900000
0000000000006201900000
000000000AFFFEEE600000
2000000000160006500000
6000000002500008300000
9000000054000009300000
C600015720000008704000
3CDBA83000000003E90000
ENDCHAR
STARTCHAR Atilde
ENCODING 195
SWIDTH 996 0
DWIDTH 20 0
BBX 21 15 1 0
BITMAP
00000000000000001D8140
000000000000000057A600
00000000005789AA840000
00000000041000004AD000
0000000031000000584000
0000000030000006280000
0000000000000061640000
0000000000000710900000
0000000000006201900000
000000000AFFFEEE600000
2000000000160006500000
6000000002500008300000
9000000054000009300000
C600015720000008704000
3CDBA83000000003E90000
ENDCHAR
STARTCHAR Adieresis
ENCODING 196
SWIDTH 996 0
DWIDTH 20 0
BBX 20 15 1 0
BITMAP
00000000000000000549
00000000000000000000
00000000005789AA8400
00000000041000004AD0
00000000310000005840
00000000300000062800
00000000000000616400
00000000000007109000
00000000000062019000
000000000AFFFEEE6000
20000000001600065000
60000000025000083000
90000000540000093000
C6000157200000087040
3CDBA83000000003E900
ENDCHAR
STARTCHAR Aring
ENCODING 197
SWIDTH 996 0
DWIDTH 20 0
BBX 20 16 1 0
BITMAP
00000000000000000082
00000000000000000246
00000000000000000182
00000000005789AA8400
00000000041000004AD0
00000000310000005840
00000000300000062800
00000000000000616400
00000000000007109000
00000000000062019000
000000000AFFFEEE6000
20000000001600065000
60000000025000083000
90000000540000093000
C6000157200000087040
3CDBA83000000003E900
ENDCHAR
STARTCHAR AE
ENCODING 198
SWIDTH 1271 0
DWIDTH 25 0
BBX 26 13 1 0
BITMAP
00000000005789AA84003457A2
00000000041000004BD3600045
00000000210000005869300020
00000000300000062A07800000
00000000000000722801DA0000
00000000000007106564210000
0000000000006100A700000000
0000000006FFFFFFF100000000
2100000000260000B000000000
6000000003500001B000000210
9000000054000000D000000600
C600015720000000A700004700
2CDBA830000000001986566000
ENDCHAR
STARTCHAR Ccedilla
ENCODING 199
SWIDTH 557 0
DWIDTH 11 0
BBX 12 15 1 -2
BITMAP
0000144568A3
000430000037
006100000021
054000000000
0A0000000000
490000000000
770000000000
970000000000
890000000100
5D0000000500
0C8000004500
02CA3116B000
000489520000
000006000000
000022000000
ENDCHAR
STARTCHAR Egrave
ENCODING 200
SWIDTH 463 0
DWIDTH 9 0
BBX 11 16 0 0
BITMAP
000000150000
000000058100
000000000000
000005569900
000073000830
0000C0000300
0000C0000000
00003A200000
001AFFA00000
02D720000000
0C3000000000
3B0000000000
690000001000
4A0000006000
0C2000045000
029755660000
ENDCHAR
STARTCHAR Eacute
ENCODING 201
SWIDTH 463 0
DWIDTH 9 0
BBX 11 16 0 0
BITMAP
000000005300
000000066000
000000000000
000005569900
000073000830
0000C0000300
0000C0000000
00003A200000
001AFFA00000
02D720000000
0C3000000000
3B0000000000
690000001000
4A0000006000
0C2000045000
029755660000
ENDCHAR
STARTCHAR Ecircumflex
ENCODING 202
SWIDTH 463 0
DWIDTH 9 0
BBX 11 16 0 0
BITMAP
000000032000
000000338300
000000000000
000005569900
000073000830
0000C0000300
0000C0000000
00003A200000
001AFFA00000
02D720000000
0C3000000000
3B0000000000
690000001000
4A0000006000
0C2000045000
029755660000
ENDCHAR
STARTCHAR Edieresis
ENCODING 203
SWIDTH 463 0
DWIDTH 9 0
BBX 11 15 0 0
BITMAP
000000095400
000000000000
000005569900
000073000830
0000C0000300
0000C0000000
00003A200000
001AFFA00000
02D720000000
0C3000000000
3B0000000000
690000001000
4A0000006000
0C2000045000
029755660000
ENDCHAR
STARTCHAR Igrave
ENCODING 204
SWIDTH 514 0
DWIDTH 10 0
BBX 14 16 0 0
BITMAP
00000000002000
00000000018700
00000000000010
000000000028C8
00000000088430
00000000820800
00000007104600
00000024009100
0000005000A000
00000040036000
00000030081000
02100010170000
44000000830000
B1000008300000
8A2025A3000000
1AEEC610000000
ENDCHAR
STARTCHAR Iacute
ENCODING 205
SWIDTH 514 0
DWIDTH 10 0
BBX 14 16 0 0
BITMAP
00000000000130
00000000003940
00000000001000
000000000028C8
00000000088430
00000000820800
00000007104600
00000024009100
0000005000A000
00000040036000
00000030081000
02100010170000
44000000830000
B1000008300000
8A2025A3000000
1AEEC610000000
ENDCHAR
STARTCHAR Icircumflex
ENCODING 206
SWIDTH 514 0
DWIDTH 10 0
BBX 14 16 0 0
BITMAP
00000000000420
00000000003383
00000000000000
000000000028C8
00000000088430
00000000820800
00000007104600
00000024009100
0000005000A000
00000040036000
00000030081000
02100010170000
44000000830000
B1000008300000
8A2025A3000000
1AEEC610000000
ENDCHAR
STARTCHAR Idieresis
ENCODING 207
SWIDTH 514 0
DWIDTH 10 0
BBX 14 15 0 0
BITMAP
00000000003690
00000000000000
000000000028C8
00000000088430
00000000820800
00000007104600
00000024009100
0000005000A000
00000040036000
00000030081000
02100010170000
44000000830000
B1000008300000
8A2025A3000000
1AEEC610000000
ENDCHAR
STARTCHAR Eth
ENCODING 208
SWIDTH 800 0
DWIDTH 16 0
BBX 16 15 0 -1
BITMAP
0000000000000200
00000579AB755100
0000510001BE4000
000400000293D600
000300000A201D30
000000002A0003D0
00000000750000A6
00000000B100005B
000005FFFEF5001D
000000048100000C
0000000B20000008
0000005800000013
034679B000000010
4944410221015710
0000000002342000
ENDCHAR
STARTCHAR Ntilde
ENCODING 209
SWIDTH 796 0
DWIDTH 16 0
BBX 25 15 -3 0
BITMAP
0000000000000002D723000000
00000000000000067A60000000
00000048AC822000000001AE40
00000420005D50000000192160
000000000006C2000000810000
0000000000072C100004300000
00000000000705900006000000
00000000002500A40032000000
000000000050002B0050000000
130000000060000B3050000000
70000000051000049330000000
9000000015000000C500000000
B2000001700000009900000000
5C300167000000004900000000
05CECA40000000000600000000
ENDCHAR
STARTCHAR Ograve
ENCODING 210
SWIDTH 608 0
DWIDTH 12 0
BBX 13 15 1 0
BITMAP
00000047300000
00000000000000
000017CEEA2000
0004951029E100
00460000009800
01700000001D00
08100000000C10
18000000000B00
56000000000A00
74000000001800
86000000006200
6A000000017000
1E400000190000
07E72026910000
005CFEA4000000
ENDCHAR
STARTCHAR Oacute
ENCODING 211
SWIDTH 608 0
DWIDTH 12 0
BBX 13 16 1 0
BITMAP
00000000710000
00000027400000
00000000000000
000017CEEA2000
0004951029E100
00460000009800
01700000001D00
08100000000C10
18000000000B00
56000000000A00
74000000001800
86000000006200
6A000000017000
1E400000190000
07E72026910000
005CFEA4000000
ENDCHAR
STARTCHAR Ocircumflex
ENCODING 212
SWIDTH 608 0
DWIDTH 12 0
BBX 13 16 1 0
BITMAP
00000002300000
00000034850000
00000000000000
000017CEEA2000
0004951029E100
00460000009800
01700000001D00
08100000000C10
18000000000B00
56000000000A00
74000000001800
86000000006200
6A000000017000
1E400000190000
07E72026910000
005CFEA4000000
ENDCHAR
STARTCHAR Otilde
ENCODING 213
SWIDTH 608 0
DWIDTH 12 0
BBX 13 15 1 0
BITMAP
0000007D750000
00000021100000
000017CEEA2000
0004951029E100
00460000009800
01700000001D00
08100000000C10
18000000000B00
56000000000A00
74000000001800
86000000006200
6A000000017000
1E400000190000
07E72026910000
005CFEA4000000
ENDCHAR
STARTCHAR Odieresis
ENCODING 214
SWIDTH 608 0
DWIDTH 12 0
BBX 13 15 1 0
BITMAP
00000009720000
00000000000000
000017CEEA2000
0004951029E100
00460000009800
01700000001D00
08100000000C10
18000000000B00
56000000000A00
74000000001800
86000000006200
6A000000017000
1E400000190000
07E72026910000
005CFEA4000000
ENDCHAR
STARTCHAR multiply
ENCODING 215
SWIDTH 301 0
DWIDTH 6 0
BBX 5 5 1 0
BITMAP
060640
036500
045000
624000
001400
ENDCHAR
STARTCHAR Oslash
ENCODING 216
SWIDTH 605 0
DWIDTH 12 0
BBX 12 14 1 -1
BITMAP
000017CED550
0004A5113670
004700001055
01800000000B
09100001000C
19000010000C
66000100000C
840010000039
940010000093
770100000390
2C0000002A10
09E820279100
065CEEA40000
110000000000
ENDCHAR
STARTCHAR Ugrave
ENCODING 217
SWIDTH 717 0
DWIDTH 14 0
BBX 17 15 0 0
BITMAP
000000000045000000
000000000005500000
000589BB8000001B10
006100034000007500
04000023000000B000
040001600000066000
3100061000000D1000
400026000000790000
210081000001D40000
0000A0000007B00000
000290000045A00000
000480000174700000
000590001807500000
0003E3159107614000
00009ED70003E70000
ENDCHAR
STARTCHAR Uacute
ENCODING 218
SWIDTH 717 0
DWIDTH 14 0
BBX 17 15 0 0
BITMAP
000000000000560000
000000000004500000
000589BB8000001B10
006100034000007500
04000023000000B000
040001600000066000
3100061000000D1000
400026000000790000
210081000001D40000
0000A0000007B00000
000290000045A00000
000480000174700000
000590001807500000
0003E3159107614000
00009ED70003E70000
ENDCHAR
STARTCHAR Ucircumflex
ENCODING 219
SWIDTH 718 0
DWIDTH 14 0
BBX 17 15 0 0
BITMAP
000000000005900000
000000000043670000
000589BB8000001B10
006100034000007500
04000023000000B000
040001600000066000
3100061000000D1000
400026000000790000
210081000001D40000
0000A0000007B00000
000290000045A00000
000480000174700000
000590001807500000
0003E3159107614000
00009ED70003E70000
ENDCHAR
STARTCHAR Udieresis
ENCODING 220
SWIDTH 718 0
DWIDTH 14 0
BBX 17 15 0 0
BITMAP
000000000018720000
000000000000000000
000589BB8000001B10
006100034000007500
04000023000000B000
040001600000066000
3100061000000D1000
400026000000790000
210081000001D40000
0000A0000007B00000
000290000045A00000
000480000174700000
000590001807500000
0003E3159107614000
00009ED70003E70000
ENDCHAR
STARTCHAR Yacute
ENCODING 221
SWIDTH 662 0
DWIDTH 13 0
BBX 18 18 0 -3
BITMAP
000000000000095000
000000000000740000
00000016C400000074
0000005075000001C0
000000008300000760
00000000B000001C00
000000019000009600
00000006500003D000
0000000A10000C5000
0000000A00007A0000
0054201A0006930000
0710002D1286600000
7200000BEB25100000
B00000000033000000
C10000000240000000
960000004500000000
2D7201495000000000
02BFEB710000000000
ENDCHAR
STARTCHAR Thorn
ENCODING 222
SWIDTH 745 0
DWIDTH 15 0
BBX 15 14 1 0
BITMAP
0000000000004300
0000000000063000
0000000000280000
0000000046CEB200
0000000510D28E20
0000003104A00980
00000000086004A0
000000000D100480
1200000039000820
50000001A2005400
6000000182231000
9000000710000000
8500017100000000
19B9850000000000
ENDCHAR
STARTCHAR germandbls
ENCODING 223
SWIDTH 304 0
DWIDTH 6 0
BBX 18 20 -7 -5
BITMAP
000000000000003220
000000000000151047
00000000000030003A
000000000001000096
0000000000100006C0
000000000030008C10
0000000001302C9000
000000000503D50000
00000000072D300000
000000002676000000
000000006253000000
000000008006000000
000000018005200000
000000053007600000
0000000707FC100000
000000150000000000
000000500000000000
000001300000000000
200013000000000000
398630000000000000
ENDCHAR
STARTCHAR agrave
ENCODING 224
SWIDTH 294 0
DWIDTH 6 0
BBX 6 9 0 0
BITMAP
000210
000790
000063
000000
008EE7
085181
290380
584951
3E6581
ENDCHAR
STARTCHAR aacute
ENCODING 225
SWIDTH 294 0
DWIDTH 6 0
BBX 6 8 0 0
BITMAP
000069
000160
000000
008EE7
085181
290380
584951
3E6581
ENDCHAR
STARTCHAR acircumflex
ENCODING 226
SWIDTH 294 0
DWIDTH 6 0
BBX 6 9 0 0
BITMAP
000170
001446
000000
000000
008EE7
085181
290380
584951
3E6581
ENDCHAR
STARTCHAR atilde
ENCODING 227
SWIDTH 294 0
DWIDTH 6 0
BBX 6 8 0 0
BITMAP
001D35
0044E5
000000
008EE7
085181
290380
584951
3E6581
ENDCHAR
STARTCHAR adieresis
ENCODING 228
SWIDTH 284 0
DWIDTH 6 0
BBX 6 8 0 0
BITMAP
000101
000A47
000000
008EE7
085181
290380
584951
3E6581
ENDCHAR
STARTCHAR aring
ENCODING 229
SWIDTH 294 0
DWIDTH 6 0
BBX 6 8 0 0
BITMAP
000390
000560
000000
008EE7
085181
290380
584951
3E6581
ENDCHAR
STARTCHAR ae
ENCODING 230
SWIDTH 363 0
DWIDTH 7 0
BBX 8 6 0 0
BITMAP
00000500
0034B6B2
0600A271
2605A200
55368010
3C41C730
ENDCHAR
STARTCHAR ccedilla
ENCODING 231
SWIDTH 203 0
DWIDTH 4 0
BBX 5 8 0 -3
BITMAP
002610
040000
260000
550300
3D7000
060000
060000
120000
ENDCHAR
STARTCHAR egrave
ENCODING 232
SWIDTH 206 0
DWIDTH 4 0
BBX 5 9 0 0
BITMAP
001100
006B00
000530
000000
014C10
053800
291000
560100
3C7200
ENDCHAR
STARTCHAR eacute
ENCODING 233
SWIDTH 206 0
DWIDTH 4 0
BBX 5 8 0 0
BITMAP
0004B0
000610
000000
014C10
053800
291000
560100
3C7200
ENDCHAR
STARTCHAR ecircumflex
ENCODING 234
SWIDTH 206 0
DWIDTH 4 0
BBX 5 9 0 0
BITMAP
002600
013550
000000
000000
014C10
053800
291000
560100
3C7200
ENDCHAR
STARTCHAR edieresis
ENCODING 235
SWIDTH 206 0
DWIDTH 4 0
BBX 5 8 0 0
BITMAP
001010
0092A0
000000
014C10
053800
291000
560100
3C7200
ENDCHAR
STARTCHAR igrave
ENCODING 236
SWIDTH 149 0
DWIDTH 3 0
BBX 4 9 0 0
BITMAP
0120
03C0
0035
0000
0370
0820
0900
3710
3B20
ENDCHAR
STARTCHAR iacute
ENCODING 237
SWIDTH 149 0
DWIDTH 3 0
BBX 5 8 0 0
BITMAP
000B40
003400
000000
037000
082000
090000
371000
3B2000
ENDCHAR
STARTCHAR icircumflex
ENCODING 238
SWIDTH 149 0
DWIDTH 3 0
BBX 5 9 0 0
BITMAP
006200
032710
000000
000000
037000
082000
090000
371000
3B2000
ENDCHAR
STARTCHAR idieresis
ENCODING 239
SWIDTH 149 0
DWIDTH 3 0
BBX 5 8 0 0
BITMAP
001010
028640
000000
037000
082000
090000
371000
3B2000
ENDCHAR
STARTCHAR eth
ENCODING 240
SWIDTH 234 0
DWIDTH 5 0
BBX 5 14 0 0
BITMAP
010000
060000
280000
0B2000
02B400
058500
110900
000820
000450
012460
050260
260420
570600
2D8000
ENDCHAR
STARTCHAR ntilde
ENCODING 241
SWIDTH 291 0
DWIDTH 6 0
BBX 6 8 0 0
BITMAP
001D35
0044E5
000000
157296
076192
0B2190
2A0461
6303A2
ENDCHAR
STARTCHAR ograve
ENCODING 242
SWIDTH 225 0
DWIDTH 5 0
BBX 5 9 0 0
BITMAP
000200
002D10
000260
000000
01BE20
071840
350710
562600
3E9000
ENDCHAR
STARTCHAR oacute
ENCODING 243
SWIDTH 225 0
DWIDTH 5 0
BBX 5 8 0 0
BITMAP
0002C0
000610
000000
01BE20
071840
350710
562600
3E9000
ENDCHAR
STARTCHAR ocircumflex
ENCODING 244
SWIDTH 225 0
DWIDTH 5 0
BBX 6 9 0 0
BITMAP
000620
003271
000000
000000
01BE20
071840
350710
562600
3E9000
ENDCHAR
STARTCHAR otilde
ENCODING 245
SWIDTH 225 0
DWIDTH 5 0
BBX 6 8 0 0
BITMAP
008823
014BB0
000000
01BE20
071840
350710
562600
3E9000
ENDCHAR
STARTCHAR odieresis
ENCODING 246
SWIDTH 225 0
DWIDTH 5 0
BBX 5 8 0 0
BITMAP
001010
0092A0
000000
01BE20
071840
350710
562600
3E9000
ENDCHAR
STARTCHAR divide
ENCODING 247
SWIDTH 301 0
DWIDTH 6 0
BBX 5 4 1 1
BITMAP
006000
000000
566620
041000
ENDCHAR
STARTCHAR oslash
ENCODING 248
SWIDTH 225 0
DWIDTH 5 0
BBX 5 7 0 -1
BITMAP
000030
016C30
052940
355710
591500
5C6000
200000
ENDCHAR
STARTCHAR ugrave
ENCODING 249
SWIDTH 299 0
DWIDTH 6 0
BBX 6 9 0 0
BITMAP
000110
0006B0
000054
000000
038037
0A20A1
1903A0
472490
3B31B3
ENDCHAR
STARTCHAR uacute
ENCODING 250
SWIDTH 299 0
DWIDTH 6 0
BBX 6 8 0 0
BITMAP
00003B
000061
000000
038037
0A20A1
1903A0
472490
3B31B3
ENDCHAR
STARTCHAR ucircumflex
ENCODING 251
SWIDTH 299 0
DWIDTH 6 0
BBX 6 9 0 0
BITMAP
000170
000436
000000
000000
038037
0A20A1
1903A0
472490
3B31B3
ENDCHAR
STARTCHAR udieresis
ENCODING 252
SWIDTH 299 0
DWIDTH 6 0
BBX 6 8 0 0
BITMAP
000101
000A38
000000
038037
0A20A1
1903A0
472490
3B31B3
ENDCHAR
STARTCHAR yacute
ENCODING 253
SWIDTH 280 0
DWIDTH 6 0
BBX 10 13 -4 -5
BITMAP
000000002C
0000000061
0000000000
0000037027
00000910A3
00000903C0
0000371670
00003A3820
0000000900
0100005400
6100007000
7400061000
1975510000
ENDCHAR
STARTCHAR thorn
ENCODING 254
SWIDTH 261 0
DWIDTH 5 0
BBX 6 15 -1 -5
BITMAP
000035
000064
000080
000260
000810
000539
00400B
00501B
0252A4
08EC40
080000
170000
530000
810000
950000
ENDCHAR
STARTCHAR ydieresis
ENCODING 255
SWIDTH 280 0
DWIDTH 6 0
BBX 10 13 -4 -5
BITMAP
0000000101
0000000A37
0000000000
0000037027
00000910A3
00000903C0
0000371670
00003A3820
0000000900
0100005400
6100007000
7400061000
1975510000
ENDCHAR
STARTCHAR dotlessi
ENCODING 305
SWIDTH 149 0
DWIDTH 3 0
BBX 3 5 0 0
BITMAP
0370
0820
0900
3710
3B20
ENDCHAR
STARTCHAR Lslash
ENCODING 321
SWIDTH 657 0
DWIDTH 13 0
BBX 15 13 0 0
BITMAP
000000000018EE20
0000000001831670
0000000007100140
0000000036000100
0000000091000000
00000002A3410000
00000359D5000000
0000000A40000000
0000001D00000000
0000006700000000
002352A000002000
47116FA521144000
2DEC825BEFD50000
ENDCHAR
STARTCHAR lslash
ENCODING 322
SWIDTH 134 0
DWIDTH 3 0
BBX 10 15 0 0
BITMAP
00000008D6
0000007203
0000061000
0000320000
0000500000
0005100000
0049300000
0262000000
0080000000
0360000000
0810000000
0A00000000
2900000000
5700000000
4710000000
ENDCHAR
STARTCHAR OE
ENCODING 338
SWIDTH 827 0
DWIDTH 17 0
BBX 17 13 1 0
BITMAP
000017CEEA24668A20
000494103AE7000370
0045000000B2000130
026000000094000000
08000000001B400000
1800000007EFE10000
55000001B931000000
840000098000000000
9500000E1000000000
7900001D0000000100
2F30000D0000004100
08E7202A7000028000
006DFDA47854571000
ENDCHAR
STARTCHAR oe
ENCODING 339
SWIDTH 345 0
DWIDTH 7 0
BBX 7 5 0 0
BITMAP
016C26A0
05076460
35076100
540C3010
3B65B610
ENDCHAR
STARTCHAR Scaron
ENCODING 352
SWIDTH 480 0
DWIDTH 10 0
BBX 10 16 1 0
BITMAP
0000005112
0000001A50
0000000000
0000039BB1
0000160057
0000530023
0000560000
00001C0000
0000078000
000000B400
0000002B00
1200000B10
9000000820
C000000900
B500003500
1998762000
ENDCHAR
STARTCHAR scaron
ENCODING 353
SWIDTH 188 0
DWIDTH 4 0
BBX 5 8 0 0
BITMAP
018220
000200
000000
055600
093100
02B000
30A100
847000
ENDCHAR
STARTCHAR Ydieresis
ENCODING 376
SWIDTH 662 0
DWIDTH 13 0
BBX 18 18 0 -3
BITMAP
000000000004590000
000000000000000000
00000016C400000074
0000005075000001C0
000000008300000760
00000000B000001C00
000000019000009600
00000006500003D000
0000000A10000C5000
0000000A00007A0000
0054201A0006930000
0710002D1286600000
7200000BEB25100000
B00000000033000000
C10000000240000000
960000004500000000
2D7201495000000000
02BFEB710000000000
ENDCHAR
STARTCHAR Zcaron
ENCODING 381
SWIDTH 625 0
DWIDTH 13 0
BBX 14 16 1 0
BITMAP
00000000502200
000000002A4000
00000000000000
000002CFDB7231
00001820149E70
00005000000100
00003000001000
00000000010000
00000000000000
00000010000000
00000100000000
00001000000000
00000000001200
00000000005000
08DA6310273000
6116BEFDA20000
ENDCHAR
STARTCHAR zcaron
ENCODING 382
SWIDTH 248 0
DWIDTH 5 0
BBX 7 8 -1 0
BITMAP
00046210
00002000
00000000
0069A700
00115000
00150000
01500200
19A97000
ENDCHAR
STARTCHAR florin
ENCODING 402
SWIDTH 214 0
DWIDTH 4 0
BBX 7 8 -2 -2
BITMAP
00001BE0
00009200
00037000
003EEB10
00191000
00080000
00420000
46300000
ENDCHAR
STARTCHAR circumflex
ENCODING 710
SWIDTH 196 0
DWIDTH 4 0
BBX 4 2 0 7
BITMAP
0440
2373
ENDCHAR
STARTCHAR caron
ENCODING 711
SWIDTH 196 0
DWIDTH 4 0
BBX 4 2 0 6
BITMAP
3821
0210
ENDCHAR
STARTCHAR breve
ENCODING 728
SWIDTH 198 0
DWIDTH 4 0
BBX 3 2 0 6
BITMAP
5000
0790
ENDCHAR
STARTCHAR dotaccent
ENCODING 729
SWIDTH 89 0
DWIDTH 2 0
BBX 2 2 0 6
BITMAP
55
82
ENDCHAR
STARTCHAR ring
ENCODING 730
SWIDTH 117 0
DWIDTH 2 0
BBX 2 2 0 6
BITMAP
48
56
ENDCHAR
STARTCHAR ogonek
ENCODING 731
SWIDTH 124 0
DWIDTH 2 0
BBX 2 3 0 -3
BITMAP
24
71
14
ENDCHAR
STARTCHAR tilde
ENCODING 732
SWIDTH 222 0
DWIDTH 4 0
BBX 4 2 0 6
BITMAP
1C35
44E5
ENDCHAR
STARTCHAR hungarumlaut
ENCODING 733
SWIDTH 253 0
DWIDTH 5 0
BBX 5 2 0 6
BITMAP
088960
475600
ENDCHAR
STARTCHAR mu.dup2
ENCODING 956
SWIDTH 324 0
DWIDTH 6 0
BBX 8 8 -1 -3
BITMAP
00072091
00280480
00921A30
01D27910
06AA1871
0A000000
1A000000
46000000
ENDCHAR
STARTCHAR endash
ENCODING 8211
SWIDTH 500 0
DWIDTH 10 0
BBX 10 1 0 3
BITMAP
8FEEEFFFF7
ENDCHAR
STARTCHAR emdash
ENCODING 8212
SWIDTH 1000 0
DWIDTH 20 0
BBX 20 1 0 3
BITMAP
8FFFFEEEEEEFFFFFFFF7
ENDCHAR
STARTCHAR quoteleft
ENCODING 8216
SWIDTH 87 0
DWIDTH 2 0
BBX 2 4 1 5
BITMAP
01
33
90
80
ENDCHAR
STARTCHAR quoteright
ENCODING 8217
SWIDTH 87 0
DWIDTH 2 0
BBX 2 4 1 5
BITMAP
01
1A
15
30
ENDCHAR
STARTCHAR quotesinglbase
ENCODING 8218
SWIDTH 112 0
DWIDTH 2 0
BBX 2 2 0 -1
BITMAP
17
01
ENDCHAR
STARTCHAR quotedblleft
ENCODING 8220
SWIDTH 167 0
DWIDTH 3 0
BBX 4 3 1 5
BITMAP
1432
8160
A460
ENDCHAR
STARTCHAR quotedblright
ENCODING 8221
SWIDTH 167 0
DWIDTH 3 0
BBX 4 3 1 5
BITMAP
1964
0762
4230
ENDCHAR
STARTCHAR quotedblbase
ENCODING 8222
SWIDTH 192 0
DWIDTH 4 0
BBX 4 2 0 -1
BITMAP
1964
3340
ENDCHAR
STARTCHAR dagger
ENCODING 8224
SWIDTH 185 0
DWIDTH 4 0
BBX 5 13 0 -2
BITMAP
000400
000800
003500
007100
5EEC90
007000
034000
060000
050000
050000
230000
400000
300000
ENDCHAR
STARTCHAR daggerdbl
ENCODING 8225
SWIDTH 185 0
DWIDTH 4 0
BBX 6 13 -1 -2
BITMAP
000040
000080
000350
000710
01AFEA
000700
005200
006000
6EFD70
005000
032000
040000
010000
ENDCHAR
STARTCHAR bullet
ENCODING 8226
SWIDTH 207 0
DWIDTH 4 0
BBX 3 2 1 2
BITMAP
8E40
BD20
ENDCHAR
STARTCHAR ellipsis
ENCODING 8230
SWIDTH 376 0
DWIDTH 8 0
BBX 7 1 0 0
BITMAP
370831A0
ENDCHAR
STARTCHAR perthousand
ENCODING 8240
SWIDTH 571 0
DWIDTH 11 0
BBX 11 10 0 -2
BITMAP
000000210000
000000700000
026506100000
410843000000
827455A11780
4B4641446090
006180527060
03408840B710
160000000000
210000000000
ENDCHAR
STARTCHAR guilsinglleft
ENCODING 8249
SWIDTH 189 0
DWIDTH 4 0
BBX 4 5 0 0
BITMAP
0026
0350
5500
2C20
0290
ENDCHAR
STARTCHAR guilsinglright
ENCODING 8250
SWIDTH 176 0
DWIDTH 4 0
BBX 4 5 -1 0
BITMAP
02B0
0078
0019
0250
2400
ENDCHAR
STARTCHAR fraction
ENCODING 8260
SWIDTH 220 0
DWIDTH 4 0
BBX 8 8 -1 -1
BITMAP
00000042
00000340
00002500
00016000
00060000
00610000
05200000
23000000
ENDCHAR
STARTCHAR Euro
ENCODING 8364
SWIDTH 360 0
DWIDTH 7 0
BBX 7 7 0 0
BITMAP
003CE420
02320200
5FFF5000
1B100000
4FFF0000
0A101000
04216000
ENDCHAR
STARTCHAR trademark
ENCODING 8482
SWIDTH 389 0
DWIDTH 8 0
BBX 7 3 1 3
BITMAP
37416510
25148700
51523610
ENDCHAR
STARTCHAR minus
ENCODING 8722
SWIDTH 301 0
DWIDTH 6 0
BBX 5 1 1 2
BITMAP
CFFF50
ENDCHAR
STARTCHAR fi
ENCODING 64257
SWIDTH 297 0
DWIDTH 6 0
BBX 17 20 -6 -5
BITMAP
000000000000059C30
000000000000510150
000000000004100000
000000000025000000
000000000070000000
000000000260000000
000000000810110000
000000001901500000
000000005505000000
00000000A100000000
0000002DFEE9000000
000000149032000000
000000083080000000
0000000B0371000000
0000004604A2000000
000000900000000000
000003500000000000
000007000000000000
300051000000000000
875400000000000000
ENDCHAR
STARTCHAR fl
ENCODING 64258
SWIDTH 290 0
DWIDTH 6 0
BBX 19 20 -6 -5
BITMAP
00000000000003736C80
000000000000665A2020
00000000000510310000
00000000003401200000
00000000008003000000
00000000036031000000
00000000091040000000
00000000190320000000
00000000640500000000
00000000A01600000000
0000001CFEE200000000
00000014805000000000
00000008208000000000
0000000A029200000000
0000004503C300000000
00000090000000000000
00000450000000000000
00000700000000000000
30005100000000000000
87540000000000000000
ENDCHAR
STARTCHAR .notdef
ENCODING -1
SWIDTH 150 0
DWIDTH 3 0
BBX 1 1 0 0
BITMAP
00
ENDCHAR
STARTCHAR .null
ENCODING -1
SWIDTH 0 0
DWIDTH 0 0
BBX 1 1 0 0
BITMAP
00
ENDCHAR
STARTCHAR nonmarkingreturn
ENCODING -1
SWIDTH 150 0
DWIDTH 3 0
BBX 1 1 0 0
BITMAP
00
ENDCHAR
ENDFONT
